<svg width="600" height="600" viewBox="0 0 600 600" fill="none" xmlns="http://www.w3.org/2000/svg">
  <!-- Gray decorative blob -->
  <ellipse cx="320" cy="350" rx="180" ry="150" fill="#E9E4E0"/>
  
  <!-- Orange decorative circle -->
  <circle cx="380" cy="250" r="160" fill="#FC563C"/>
  
  <!-- Decorative orange lines -->
  <path d="M280 180 L320 140" stroke="#FC563C" strokeWidth="4" strokeLinecap="round"/>
  <path d="M260 220 L290 190" stroke="#FC563C" strokeWidth="4" strokeLinecap="round"/>
  <path d="M240 260 L260 230" stroke="#FC563C" strokeWidth="4" strokeLinecap="round"/>
  
  <!-- Person - hair -->
  <ellipse cx="350" cy="180" rx="65" ry="75" fill="#1F2937"/>
  
  <!-- Person - face -->
  <ellipse cx="350" cy="195" rx="50" ry="55" fill="#F5D0B0"/>
  
  <!-- Person - body/clothes -->
  <path d="M280 240 C280 320 420 320 420 240 L420 200 C420 190 280 190 280 200 Z" fill="#1F2937"/>
  
  <!-- Laptop base -->
  <rect x="280" y="320" width="180" height="15" rx="3" fill="#374151"/>
  
  <!-- Laptop screen -->
  <rect x="290" y="220" width="160" height="100" rx="5" fill="#374151"/>
  <rect x="295" y="225" width="150" height="90" rx="3" fill="#E5E7EB"/>
  
  <!-- Laptop screen content lines -->
  <rect x="310" y="245" width="80" height="8" rx="2" fill="#D1D5DB"/>
  <rect x="310" y="260" width="60" height="8" rx="2" fill="#D1D5DB"/>
  <rect x="310" y="275" width="70" height="8" rx="2" fill="#D1D5DB"/>
  <rect x="310" y="290" width="50" height="8" rx="2" fill="#D1D5DB"/>
  
  <!-- Hands on laptop -->
  <ellipse cx="330" cy="315" rx="20" ry="8" fill="#F5D0B0"/>
  <ellipse cx="410" cy="315" rx="20" ry="8" fill="#F5D0B0"/>
  
  <!-- Decorative dots -->
  <circle cx="180" cy="150" r="6" fill="#FC563C"/>
  <circle cx="160" cy="180" r="4" fill="#FC563C"/>
  <circle cx="520" cy="400" r="8" fill="#FC563C"/>
  <circle cx="540" cy="370" r="5" fill="#FC563C"/>
  <circle cx="150" cy="400" r="4" fill="#6E7575"/>
  <circle cx="130" cy="430" r="3" fill="#6E7575"/>
</svg>
